<svg xmlns="http://www.w3.org/2000/svg" viewBox="0 0 512 512">
  <path fill="#7c5dfa" d="M344 240H280a8 8 0 0 0-8 8v48a8 8 0 0 0 8 8h64a8 8 0 0 0 8-8v-48a8 8 0 0 0-8-8zm0-64H168a8 8 0 0 0-8 8v48a8 8 0 0 0 8 8h176a8 8 0 0 0 8-8v-48a8 8 0 0 0-8-8zm0-64H168a8 8 0 0 0-8 8v48a8 8 0 0 0 8 8h176a8 8 0 0 0 8-8v-48a8 8 0 0 0-8-8zM168 304a8 8 0 0 0-8 8v48a8 8 0 0 0 8 8h176a8 8 0 0 0 8-8v-48a8 8 0 0 0-8-8zm173.35 152L272 387.31V253.32a21.31 21.31 0 0 1 21.33-21.32h64a21.31 21.31 0 0 1 21.33 21.32v48a21.36 21.36 0 0 1-21.33 21.36H307.6L341.33 368a21.31 21.31 0 0 1 21.33 21.33v48a21.31 21.31 0 0 1-21.31 21.33h-64a21.31 21.31 0 0 1-21.33-21.33v-48a21.31 21.31 0 0 1 21.33-21.33h26.75l-33.75-45.33h-112a21.31 21.31 0 0 1-21.33-21.36v-48a21.31 21.31 0 0 1 21.33-21.32h176a21.31 21.31 0 0 1 21.33 21.32v48a21.31 21.31 0 0 1-21.33 21.36H253.33L287 325.33a21.31 21.31 0 0 1 21.33 21.33v48a21.31 21.31 0 0 1-21.33 21.33H240a21.31 21.31 0 0 1-21.33-21.33v-48A21.31 21.31 0 0 1 240 325.33h26.75L233 280H120a21.31 21.31 0 0 1-21.33-21.36v-48A21.31 21.31 0 0 1 120 189.32h176a21.31 21.31 0 0 1 21.33 21.32v48a21.31 21.31 0 0 1-21.33 21.36H186.68L220.4 326.4a8 8 0 0 0-1.07 11.2l10.67 14.4a8 8 0 0 0 11.2 1.06l100.53-74.66a8 8 0 0 0 1.06-11.19l-10.66-14.4a8 8 0 0 0-11.2-1.07l-100.53 74.67a8 8 0 0 0-1.07 11.2l10.67 14.4a8 8 0 0 0 11.2 1.06l100.53-74.66a8 8 0 0 0 1.06-11.19l-10.66-14.4a8 8 0 0 0-11.2-1.07zM120 368a8 8 0 0 0-8 8v48a8 8 0 0 0 8 8h80a8 8 0 0 0 8-8v-48a8 8 0 0 0-8-8z"/>
</svg>
